<mxfile host="app.diagrams.net" modified="2023-08-12T01:49:27.121Z" agent="Mozilla/5.0 (Windows NT 10.0; Win64; x64) AppleWebKit/537.36 (KHTML, like Gecko) Chrome/115.0.0.0 Safari/537.36" etag="1ptoGwoyBYlvsRbjxorQ" version="21.6.7" type="github">
  <diagram id="C5RBs43oDa-KdzZeNtuy" name="Page-1">
    <mxGraphModel dx="2514" dy="885" grid="1" gridSize="10" guides="1" tooltips="1" connect="1" arrows="1" fold="1" page="1" pageScale="1" pageWidth="827" pageHeight="1169" math="0" shadow="0">
      <root>
        <mxCell id="WIyWlLk6GJQsqaUBKTNV-0" />
        <mxCell id="WIyWlLk6GJQsqaUBKTNV-1" parent="WIyWlLk6GJQsqaUBKTNV-0" />
        <mxCell id="yXGT23yazqKVYROXxRZH-7" value="" style="edgeStyle=orthogonalEdgeStyle;rounded=0;orthogonalLoop=1;jettySize=auto;html=1;" parent="WIyWlLk6GJQsqaUBKTNV-1" source="WIyWlLk6GJQsqaUBKTNV-6" target="yXGT23yazqKVYROXxRZH-6" edge="1">
          <mxGeometry relative="1" as="geometry" />
        </mxCell>
        <mxCell id="WIyWlLk6GJQsqaUBKTNV-6" value="로그인&lt;br&gt;( Y / N )" style="rhombus;whiteSpace=wrap;html=1;shadow=0;fontFamily=Helvetica;fontSize=12;align=center;strokeWidth=1;spacing=6;spacingTop=-4;labelBackgroundColor=none;rounded=0;fillColor=#09555B;strokeColor=#BAC8D3;fontColor=#EEEEEE;" parent="WIyWlLk6GJQsqaUBKTNV-1" vertex="1">
          <mxGeometry x="280" y="270" width="100" height="70" as="geometry" />
        </mxCell>
        <mxCell id="yXGT23yazqKVYROXxRZH-13" value="" style="edgeStyle=orthogonalEdgeStyle;rounded=0;orthogonalLoop=1;jettySize=auto;html=1;" parent="WIyWlLk6GJQsqaUBKTNV-1" source="0bC-GasRbppWAcGdlRrs-1" target="yXGT23yazqKVYROXxRZH-12" edge="1">
          <mxGeometry relative="1" as="geometry" />
        </mxCell>
        <mxCell id="0bC-GasRbppWAcGdlRrs-1" value="시작&lt;br&gt;(메인페이지)" style="strokeWidth=2;html=1;shape=mxgraph.flowchart.terminator;whiteSpace=wrap;strokeColor=#BAC8D3;fontColor=#EEEEEE;fillColor=#09555B;" parent="WIyWlLk6GJQsqaUBKTNV-1" vertex="1">
          <mxGeometry x="260" y="30" width="140" height="50" as="geometry" />
        </mxCell>
        <mxCell id="0bC-GasRbppWAcGdlRrs-2" value="출력" style="shape=document;whiteSpace=wrap;html=1;boundedLbl=1;strokeColor=#BAC8D3;fontColor=#EEEEEE;fillColor=#09555B;" parent="WIyWlLk6GJQsqaUBKTNV-1" vertex="1">
          <mxGeometry x="480" y="30" width="120" height="60" as="geometry" />
        </mxCell>
        <mxCell id="j07MkLIGBB6SY7WjXgDA-7" value="" style="edgeStyle=orthogonalEdgeStyle;rounded=0;orthogonalLoop=1;jettySize=auto;html=1;" edge="1" parent="WIyWlLk6GJQsqaUBKTNV-1" source="yXGT23yazqKVYROXxRZH-1" target="j07MkLIGBB6SY7WjXgDA-5">
          <mxGeometry relative="1" as="geometry" />
        </mxCell>
        <mxCell id="yXGT23yazqKVYROXxRZH-1" value="카테고리별&lt;br&gt;와인 출력" style="shape=document;whiteSpace=wrap;html=1;boundedLbl=1;strokeColor=#BAC8D3;fontColor=#EEEEEE;fillColor=#09555B;" parent="WIyWlLk6GJQsqaUBKTNV-1" vertex="1">
          <mxGeometry x="-130" y="410" width="120" height="60" as="geometry" />
        </mxCell>
        <mxCell id="yXGT23yazqKVYROXxRZH-16" value="" style="edgeStyle=orthogonalEdgeStyle;rounded=0;orthogonalLoop=1;jettySize=auto;html=1;" parent="WIyWlLk6GJQsqaUBKTNV-1" source="yXGT23yazqKVYROXxRZH-6" target="yXGT23yazqKVYROXxRZH-15" edge="1">
          <mxGeometry relative="1" as="geometry" />
        </mxCell>
        <mxCell id="yXGT23yazqKVYROXxRZH-6" value="&lt;p style=&quot;line-height: 100%;&quot;&gt;&lt;font style=&quot;font-size: 10px;&quot;&gt;카테고리&lt;br&gt;와인 선택&lt;br&gt;( Y / N )&lt;/font&gt;&lt;/p&gt;" style="rhombus;whiteSpace=wrap;html=1;shadow=0;fontFamily=Helvetica;fontSize=12;align=center;strokeWidth=1;spacing=6;spacingTop=-4;labelBackgroundColor=none;rounded=0;fillColor=#09555B;strokeColor=#BAC8D3;fontColor=#EEEEEE;" parent="WIyWlLk6GJQsqaUBKTNV-1" vertex="1">
          <mxGeometry x="460" y="270" width="100" height="70" as="geometry" />
        </mxCell>
        <mxCell id="yXGT23yazqKVYROXxRZH-8" value="No" style="text;html=1;strokeColor=none;fillColor=none;align=center;verticalAlign=middle;whiteSpace=wrap;rounded=0;" parent="WIyWlLk6GJQsqaUBKTNV-1" vertex="1">
          <mxGeometry x="384" y="280" width="60" height="30" as="geometry" />
        </mxCell>
        <mxCell id="yXGT23yazqKVYROXxRZH-10" value="Yes" style="text;html=1;strokeColor=none;fillColor=none;align=center;verticalAlign=middle;whiteSpace=wrap;rounded=0;" parent="WIyWlLk6GJQsqaUBKTNV-1" vertex="1">
          <mxGeometry x="280" y="330" width="60" height="30" as="geometry" />
        </mxCell>
        <mxCell id="yXGT23yazqKVYROXxRZH-14" value="" style="edgeStyle=orthogonalEdgeStyle;rounded=0;orthogonalLoop=1;jettySize=auto;html=1;" parent="WIyWlLk6GJQsqaUBKTNV-1" source="yXGT23yazqKVYROXxRZH-12" target="WIyWlLk6GJQsqaUBKTNV-6" edge="1">
          <mxGeometry relative="1" as="geometry" />
        </mxCell>
        <mxCell id="yXGT23yazqKVYROXxRZH-12" value="메인화면&lt;br&gt;출력" style="shape=document;whiteSpace=wrap;html=1;boundedLbl=1;strokeColor=#BAC8D3;fontColor=#EEEEEE;fillColor=#09555B;" parent="WIyWlLk6GJQsqaUBKTNV-1" vertex="1">
          <mxGeometry x="270" y="150" width="120" height="60" as="geometry" />
        </mxCell>
        <mxCell id="yXGT23yazqKVYROXxRZH-15" value="&lt;p style=&quot;line-height: 100%; font-size: 11px;&quot;&gt;카테고리별&lt;br&gt;와인 출력&lt;br&gt;( ex )category_id = 1)&lt;br&gt;&lt;/p&gt;" style="shape=document;whiteSpace=wrap;html=1;boundedLbl=1;fillColor=#09555B;strokeColor=#BAC8D3;fontColor=#EEEEEE;shadow=0;strokeWidth=1;spacing=6;spacingTop=-4;labelBackgroundColor=none;rounded=0;" parent="WIyWlLk6GJQsqaUBKTNV-1" vertex="1">
          <mxGeometry x="630" y="265" width="120" height="80" as="geometry" />
        </mxCell>
        <mxCell id="yXGT23yazqKVYROXxRZH-18" value="" style="endArrow=classic;html=1;rounded=0;exitX=0.5;exitY=0;exitDx=0;exitDy=0;entryX=1;entryY=0.5;entryDx=0;entryDy=0;" parent="WIyWlLk6GJQsqaUBKTNV-1" source="yXGT23yazqKVYROXxRZH-6" target="yXGT23yazqKVYROXxRZH-12" edge="1">
          <mxGeometry width="50" height="50" relative="1" as="geometry">
            <mxPoint x="440" y="270" as="sourcePoint" />
            <mxPoint x="450" y="220" as="targetPoint" />
            <Array as="points">
              <mxPoint x="510" y="180" />
            </Array>
          </mxGeometry>
        </mxCell>
        <mxCell id="yXGT23yazqKVYROXxRZH-20" value="No" style="text;html=1;strokeColor=none;fillColor=none;align=center;verticalAlign=middle;whiteSpace=wrap;rounded=0;" parent="WIyWlLk6GJQsqaUBKTNV-1" vertex="1">
          <mxGeometry x="490" y="210" width="60" height="30" as="geometry" />
        </mxCell>
        <mxCell id="yXGT23yazqKVYROXxRZH-21" value="Yes" style="text;html=1;strokeColor=none;fillColor=none;align=center;verticalAlign=middle;whiteSpace=wrap;rounded=0;" parent="WIyWlLk6GJQsqaUBKTNV-1" vertex="1">
          <mxGeometry x="560" y="300" width="60" height="30" as="geometry" />
        </mxCell>
        <mxCell id="yXGT23yazqKVYROXxRZH-22" value="입문 와인 출력" style="shape=document;whiteSpace=wrap;html=1;boundedLbl=1;strokeColor=#BAC8D3;fontColor=#EEEEEE;fillColor=#09555B;" parent="WIyWlLk6GJQsqaUBKTNV-1" vertex="1">
          <mxGeometry x="190" y="410" width="120" height="60" as="geometry" />
        </mxCell>
        <mxCell id="yXGT23yazqKVYROXxRZH-23" value="음식별 와인 출력" style="shape=document;whiteSpace=wrap;html=1;boundedLbl=1;strokeColor=#BAC8D3;fontColor=#EEEEEE;fillColor=#09555B;" parent="WIyWlLk6GJQsqaUBKTNV-1" vertex="1">
          <mxGeometry x="353.5" y="410" width="120" height="60" as="geometry" />
        </mxCell>
        <mxCell id="yXGT23yazqKVYROXxRZH-24" value="국가별 와인 출력" style="shape=document;whiteSpace=wrap;html=1;boundedLbl=1;strokeColor=#BAC8D3;fontColor=#EEEEEE;fillColor=#09555B;" parent="WIyWlLk6GJQsqaUBKTNV-1" vertex="1">
          <mxGeometry x="510" y="410" width="120" height="60" as="geometry" />
        </mxCell>
        <mxCell id="yXGT23yazqKVYROXxRZH-25" value="가격별 와인 출력" style="shape=document;whiteSpace=wrap;html=1;boundedLbl=1;strokeColor=#BAC8D3;fontColor=#EEEEEE;fillColor=#09555B;" parent="WIyWlLk6GJQsqaUBKTNV-1" vertex="1">
          <mxGeometry x="670" y="410" width="120" height="60" as="geometry" />
        </mxCell>
        <mxCell id="j07MkLIGBB6SY7WjXgDA-0" value="" style="endArrow=classic;html=1;rounded=0;exitX=0.5;exitY=1;exitDx=0;exitDy=0;entryX=0.5;entryY=0;entryDx=0;entryDy=0;" edge="1" parent="WIyWlLk6GJQsqaUBKTNV-1" source="WIyWlLk6GJQsqaUBKTNV-6" target="yXGT23yazqKVYROXxRZH-1">
          <mxGeometry width="50" height="50" relative="1" as="geometry">
            <mxPoint x="390" y="510" as="sourcePoint" />
            <mxPoint x="330" y="450" as="targetPoint" />
            <Array as="points">
              <mxPoint x="330" y="370" />
              <mxPoint x="-70" y="370" />
            </Array>
          </mxGeometry>
        </mxCell>
        <mxCell id="j07MkLIGBB6SY7WjXgDA-1" value="" style="endArrow=classic;html=1;rounded=0;" edge="1" parent="WIyWlLk6GJQsqaUBKTNV-1" target="yXGT23yazqKVYROXxRZH-22">
          <mxGeometry width="50" height="50" relative="1" as="geometry">
            <mxPoint x="250" y="370" as="sourcePoint" />
            <mxPoint x="440" y="460" as="targetPoint" />
          </mxGeometry>
        </mxCell>
        <mxCell id="j07MkLIGBB6SY7WjXgDA-2" value="" style="endArrow=classic;html=1;rounded=0;entryX=0.5;entryY=0;entryDx=0;entryDy=0;" edge="1" parent="WIyWlLk6GJQsqaUBKTNV-1" target="yXGT23yazqKVYROXxRZH-25">
          <mxGeometry width="50" height="50" relative="1" as="geometry">
            <mxPoint x="330" y="370" as="sourcePoint" />
            <mxPoint x="440" y="460" as="targetPoint" />
            <Array as="points">
              <mxPoint x="730" y="370" />
            </Array>
          </mxGeometry>
        </mxCell>
        <mxCell id="j07MkLIGBB6SY7WjXgDA-3" value="" style="endArrow=classic;html=1;rounded=0;entryX=0.471;entryY=0.022;entryDx=0;entryDy=0;entryPerimeter=0;" edge="1" parent="WIyWlLk6GJQsqaUBKTNV-1" target="yXGT23yazqKVYROXxRZH-23">
          <mxGeometry width="50" height="50" relative="1" as="geometry">
            <mxPoint x="410" y="370" as="sourcePoint" />
            <mxPoint x="440" y="460" as="targetPoint" />
          </mxGeometry>
        </mxCell>
        <mxCell id="j07MkLIGBB6SY7WjXgDA-4" value="" style="endArrow=classic;html=1;rounded=0;entryX=0.5;entryY=0;entryDx=0;entryDy=0;" edge="1" parent="WIyWlLk6GJQsqaUBKTNV-1" target="yXGT23yazqKVYROXxRZH-24">
          <mxGeometry width="50" height="50" relative="1" as="geometry">
            <mxPoint x="570" y="370" as="sourcePoint" />
            <mxPoint x="490" y="410" as="targetPoint" />
          </mxGeometry>
        </mxCell>
        <mxCell id="j07MkLIGBB6SY7WjXgDA-5" value="더보기&lt;br&gt;(Y/N)" style="rhombus;whiteSpace=wrap;html=1;shadow=0;fontFamily=Helvetica;fontSize=12;align=center;strokeWidth=1;spacing=6;spacingTop=-4;labelBackgroundColor=none;rounded=0;fillColor=#09555B;strokeColor=#BAC8D3;fontColor=#EEEEEE;" vertex="1" parent="WIyWlLk6GJQsqaUBKTNV-1">
          <mxGeometry x="-120" y="520" width="100" height="70" as="geometry" />
        </mxCell>
        <mxCell id="j07MkLIGBB6SY7WjXgDA-8" value="" style="endArrow=classic;html=1;rounded=0;exitX=0;exitY=0.5;exitDx=0;exitDy=0;entryX=0;entryY=0.5;entryDx=0;entryDy=0;" edge="1" parent="WIyWlLk6GJQsqaUBKTNV-1" source="j07MkLIGBB6SY7WjXgDA-5" target="yXGT23yazqKVYROXxRZH-1">
          <mxGeometry width="50" height="50" relative="1" as="geometry">
            <mxPoint x="-210" y="570" as="sourcePoint" />
            <mxPoint x="-160" y="520" as="targetPoint" />
            <Array as="points">
              <mxPoint x="-180" y="555" />
              <mxPoint x="-180" y="440" />
            </Array>
          </mxGeometry>
        </mxCell>
        <mxCell id="j07MkLIGBB6SY7WjXgDA-9" value="No" style="text;html=1;strokeColor=none;fillColor=none;align=center;verticalAlign=middle;whiteSpace=wrap;rounded=0;" vertex="1" parent="WIyWlLk6GJQsqaUBKTNV-1">
          <mxGeometry x="-220" y="480" width="60" height="40" as="geometry" />
        </mxCell>
        <mxCell id="j07MkLIGBB6SY7WjXgDA-10" value="Yes" style="text;html=1;strokeColor=none;fillColor=none;align=center;verticalAlign=middle;whiteSpace=wrap;rounded=0;" vertex="1" parent="WIyWlLk6GJQsqaUBKTNV-1">
          <mxGeometry x="-120" y="480" width="60" height="30" as="geometry" />
        </mxCell>
        <mxCell id="j07MkLIGBB6SY7WjXgDA-11" value="" style="edgeStyle=orthogonalEdgeStyle;rounded=0;orthogonalLoop=1;jettySize=auto;html=1;fillColor=#a20025;strokeColor=default;" edge="1" parent="WIyWlLk6GJQsqaUBKTNV-1" source="j07MkLIGBB6SY7WjXgDA-12" target="j07MkLIGBB6SY7WjXgDA-19">
          <mxGeometry relative="1" as="geometry" />
        </mxCell>
        <mxCell id="j07MkLIGBB6SY7WjXgDA-42" value="" style="edgeStyle=orthogonalEdgeStyle;rounded=0;orthogonalLoop=1;jettySize=auto;html=1;fillColor=#a20025;strokeColor=default;" edge="1" parent="WIyWlLk6GJQsqaUBKTNV-1" source="j07MkLIGBB6SY7WjXgDA-12" target="j07MkLIGBB6SY7WjXgDA-41">
          <mxGeometry relative="1" as="geometry" />
        </mxCell>
        <mxCell id="j07MkLIGBB6SY7WjXgDA-12" value="로그인&lt;br&gt;( Y / N )" style="rhombus;whiteSpace=wrap;html=1;shadow=0;fontFamily=Helvetica;fontSize=12;align=center;strokeWidth=1;spacing=6;spacingTop=-4;labelBackgroundColor=none;rounded=0;fillColor=#a20025;strokeColor=default;fontColor=#ffffff;" vertex="1" parent="WIyWlLk6GJQsqaUBKTNV-1">
          <mxGeometry x="430" y="1420" width="120" height="70" as="geometry" />
        </mxCell>
        <mxCell id="j07MkLIGBB6SY7WjXgDA-13" value="" style="edgeStyle=orthogonalEdgeStyle;rounded=0;orthogonalLoop=1;jettySize=auto;html=1;fillColor=#a20025;strokeColor=default;" edge="1" parent="WIyWlLk6GJQsqaUBKTNV-1" source="j07MkLIGBB6SY7WjXgDA-14" target="j07MkLIGBB6SY7WjXgDA-23">
          <mxGeometry relative="1" as="geometry" />
        </mxCell>
        <mxCell id="j07MkLIGBB6SY7WjXgDA-14" value="시작&lt;br&gt;(메인페이지)" style="strokeWidth=2;html=1;shape=mxgraph.flowchart.terminator;whiteSpace=wrap;strokeColor=default;fillColor=#a20025;fontColor=#ffffff;" vertex="1" parent="WIyWlLk6GJQsqaUBKTNV-1">
          <mxGeometry x="420" y="1180" width="140" height="50" as="geometry" />
        </mxCell>
        <mxCell id="j07MkLIGBB6SY7WjXgDA-15" value="출력" style="shape=document;whiteSpace=wrap;html=1;boundedLbl=1;strokeColor=default;fillColor=#a20025;fontColor=#ffffff;" vertex="1" parent="WIyWlLk6GJQsqaUBKTNV-1">
          <mxGeometry x="640" y="1180" width="120" height="60" as="geometry" />
        </mxCell>
        <mxCell id="j07MkLIGBB6SY7WjXgDA-18" value="" style="edgeStyle=orthogonalEdgeStyle;rounded=0;orthogonalLoop=1;jettySize=auto;html=1;fillColor=#a20025;strokeColor=default;" edge="1" parent="WIyWlLk6GJQsqaUBKTNV-1" source="j07MkLIGBB6SY7WjXgDA-19" target="j07MkLIGBB6SY7WjXgDA-24">
          <mxGeometry relative="1" as="geometry" />
        </mxCell>
        <mxCell id="j07MkLIGBB6SY7WjXgDA-19" value="&lt;p style=&quot;line-height: 100%;&quot;&gt;&lt;font style=&quot;font-size: 12px;&quot;&gt;카테고리&lt;br&gt;와인 선택&lt;br&gt;( Y / N )&lt;/font&gt;&lt;/p&gt;" style="rhombus;whiteSpace=wrap;html=1;shadow=0;fontFamily=Helvetica;fontSize=12;align=center;strokeWidth=1;spacing=6;spacingTop=-4;labelBackgroundColor=none;rounded=0;fillColor=#a20025;strokeColor=default;fontColor=#ffffff;" vertex="1" parent="WIyWlLk6GJQsqaUBKTNV-1">
          <mxGeometry x="610" y="1420" width="120" height="70" as="geometry" />
        </mxCell>
        <mxCell id="j07MkLIGBB6SY7WjXgDA-22" value="" style="edgeStyle=orthogonalEdgeStyle;rounded=0;orthogonalLoop=1;jettySize=auto;html=1;fillColor=#a20025;strokeColor=default;" edge="1" parent="WIyWlLk6GJQsqaUBKTNV-1" source="j07MkLIGBB6SY7WjXgDA-23" target="j07MkLIGBB6SY7WjXgDA-12">
          <mxGeometry relative="1" as="geometry" />
        </mxCell>
        <mxCell id="j07MkLIGBB6SY7WjXgDA-23" value="메인화면&lt;br&gt;출력" style="shape=document;whiteSpace=wrap;html=1;boundedLbl=1;strokeColor=default;fillColor=#a20025;fontColor=#ffffff;" vertex="1" parent="WIyWlLk6GJQsqaUBKTNV-1">
          <mxGeometry x="430" y="1300" width="120" height="60" as="geometry" />
        </mxCell>
        <mxCell id="j07MkLIGBB6SY7WjXgDA-24" value="&lt;p style=&quot;line-height: 100%; font-size: 11px;&quot;&gt;카테고리별&lt;br&gt;와인 출력&lt;br&gt;( ex )category_id = 1)&lt;br&gt;&lt;/p&gt;" style="shape=document;whiteSpace=wrap;html=1;boundedLbl=1;fillColor=#a20025;strokeColor=default;shadow=0;strokeWidth=1;spacing=6;spacingTop=-4;labelBackgroundColor=none;rounded=0;fontColor=#ffffff;" vertex="1" parent="WIyWlLk6GJQsqaUBKTNV-1">
          <mxGeometry x="790" y="1415" width="120" height="80" as="geometry" />
        </mxCell>
        <mxCell id="j07MkLIGBB6SY7WjXgDA-25" value="" style="endArrow=classic;html=1;rounded=0;exitX=0.5;exitY=0;exitDx=0;exitDy=0;entryX=1;entryY=0.5;entryDx=0;entryDy=0;fillColor=#a20025;strokeColor=default;" edge="1" parent="WIyWlLk6GJQsqaUBKTNV-1" source="j07MkLIGBB6SY7WjXgDA-19" target="j07MkLIGBB6SY7WjXgDA-23">
          <mxGeometry width="50" height="50" relative="1" as="geometry">
            <mxPoint x="600" y="1420" as="sourcePoint" />
            <mxPoint x="610" y="1370" as="targetPoint" />
            <Array as="points">
              <mxPoint x="670" y="1330" />
            </Array>
          </mxGeometry>
        </mxCell>
        <mxCell id="j07MkLIGBB6SY7WjXgDA-26" value="&lt;font color=&quot;#000000&quot;&gt;No&lt;/font&gt;" style="text;html=1;strokeColor=none;fillColor=none;align=center;verticalAlign=middle;whiteSpace=wrap;rounded=0;fontColor=#ffffff;" vertex="1" parent="WIyWlLk6GJQsqaUBKTNV-1">
          <mxGeometry x="660" y="1360" width="60" height="30" as="geometry" />
        </mxCell>
        <mxCell id="j07MkLIGBB6SY7WjXgDA-27" value="Yes" style="text;html=1;strokeColor=none;fillColor=none;align=center;verticalAlign=middle;whiteSpace=wrap;rounded=0;fontColor=#000000;" vertex="1" parent="WIyWlLk6GJQsqaUBKTNV-1">
          <mxGeometry x="720" y="1450" width="60" height="30" as="geometry" />
        </mxCell>
        <mxCell id="j07MkLIGBB6SY7WjXgDA-44" value="" style="edgeStyle=orthogonalEdgeStyle;rounded=0;orthogonalLoop=1;jettySize=auto;html=1;fillColor=#a20025;strokeColor=default;" edge="1" parent="WIyWlLk6GJQsqaUBKTNV-1" source="j07MkLIGBB6SY7WjXgDA-41" target="j07MkLIGBB6SY7WjXgDA-43">
          <mxGeometry relative="1" as="geometry" />
        </mxCell>
        <mxCell id="j07MkLIGBB6SY7WjXgDA-41" value="카테고리별,&lt;br&gt;입문추천,음식별,국가별,가격별 추천와인 출력" style="shape=document;whiteSpace=wrap;html=1;boundedLbl=1;fillColor=#a20025;strokeColor=default;shadow=0;strokeWidth=1;spacing=6;spacingTop=-4;labelBackgroundColor=none;rounded=0;fontColor=#ffffff;" vertex="1" parent="WIyWlLk6GJQsqaUBKTNV-1">
          <mxGeometry x="420" y="1560" width="140" height="80" as="geometry" />
        </mxCell>
        <mxCell id="j07MkLIGBB6SY7WjXgDA-46" value="" style="edgeStyle=orthogonalEdgeStyle;rounded=0;orthogonalLoop=1;jettySize=auto;html=1;fillColor=#a20025;strokeColor=default;" edge="1" parent="WIyWlLk6GJQsqaUBKTNV-1" source="j07MkLIGBB6SY7WjXgDA-43" target="j07MkLIGBB6SY7WjXgDA-45">
          <mxGeometry relative="1" as="geometry" />
        </mxCell>
        <mxCell id="j07MkLIGBB6SY7WjXgDA-43" value="더보기&lt;br&gt;( Y / N )" style="rhombus;whiteSpace=wrap;html=1;shadow=0;fontFamily=Helvetica;fontSize=12;align=center;strokeWidth=1;spacing=6;spacingTop=-4;labelBackgroundColor=none;rounded=0;fillColor=#a20025;strokeColor=default;fontColor=#ffffff;" vertex="1" parent="WIyWlLk6GJQsqaUBKTNV-1">
          <mxGeometry x="430" y="1690" width="120" height="70" as="geometry" />
        </mxCell>
        <mxCell id="j07MkLIGBB6SY7WjXgDA-60" value="" style="edgeStyle=orthogonalEdgeStyle;rounded=0;orthogonalLoop=1;jettySize=auto;html=1;" edge="1" parent="WIyWlLk6GJQsqaUBKTNV-1" source="j07MkLIGBB6SY7WjXgDA-45" target="j07MkLIGBB6SY7WjXgDA-59">
          <mxGeometry relative="1" as="geometry" />
        </mxCell>
        <mxCell id="j07MkLIGBB6SY7WjXgDA-45" value="각 항목별&lt;br&gt;전체 와인리스트&amp;nbsp;&lt;br&gt;출력" style="shape=document;whiteSpace=wrap;html=1;boundedLbl=1;fillColor=#a20025;strokeColor=default;shadow=0;strokeWidth=1;spacing=6;spacingTop=-4;labelBackgroundColor=none;rounded=0;fontColor=#ffffff;" vertex="1" parent="WIyWlLk6GJQsqaUBKTNV-1">
          <mxGeometry x="430" y="1835" width="120" height="80" as="geometry" />
        </mxCell>
        <mxCell id="j07MkLIGBB6SY7WjXgDA-47" value="" style="endArrow=classic;html=1;rounded=0;exitX=0;exitY=0.5;exitDx=0;exitDy=0;entryX=0;entryY=0.5;entryDx=0;entryDy=0;fillColor=#a20025;strokeColor=default;" edge="1" parent="WIyWlLk6GJQsqaUBKTNV-1" source="j07MkLIGBB6SY7WjXgDA-43" target="j07MkLIGBB6SY7WjXgDA-41">
          <mxGeometry width="50" height="50" relative="1" as="geometry">
            <mxPoint x="560" y="1750" as="sourcePoint" />
            <mxPoint x="610" y="1700" as="targetPoint" />
            <Array as="points">
              <mxPoint x="380" y="1725" />
              <mxPoint x="380" y="1600" />
            </Array>
          </mxGeometry>
        </mxCell>
        <mxCell id="j07MkLIGBB6SY7WjXgDA-51" value="" style="edgeStyle=orthogonalEdgeStyle;rounded=0;orthogonalLoop=1;jettySize=auto;html=1;fillColor=#a20025;strokeColor=default;" edge="1" parent="WIyWlLk6GJQsqaUBKTNV-1" source="j07MkLIGBB6SY7WjXgDA-50">
          <mxGeometry relative="1" as="geometry">
            <mxPoint x="757" y="1710" as="targetPoint" />
          </mxGeometry>
        </mxCell>
        <mxCell id="j07MkLIGBB6SY7WjXgDA-50" value="네비게이션바&lt;br&gt;(메인페이지)" style="strokeWidth=2;html=1;shape=mxgraph.flowchart.terminator;whiteSpace=wrap;strokeColor=default;fillColor=#a20025;fontColor=#ffffff;" vertex="1" parent="WIyWlLk6GJQsqaUBKTNV-1">
          <mxGeometry x="687" y="1760" width="140" height="50" as="geometry" />
        </mxCell>
        <mxCell id="j07MkLIGBB6SY7WjXgDA-53" value="Yes" style="text;html=1;strokeColor=none;fillColor=none;align=center;verticalAlign=middle;whiteSpace=wrap;rounded=0;fontColor=#000000;" vertex="1" parent="WIyWlLk6GJQsqaUBKTNV-1">
          <mxGeometry x="480" y="1780" width="60" height="30" as="geometry" />
        </mxCell>
        <mxCell id="j07MkLIGBB6SY7WjXgDA-54" value="&lt;font color=&quot;#000000&quot;&gt;No&lt;/font&gt;" style="text;html=1;strokeColor=none;fillColor=none;align=center;verticalAlign=middle;whiteSpace=wrap;rounded=0;fontColor=#ffffff;" vertex="1" parent="WIyWlLk6GJQsqaUBKTNV-1">
          <mxGeometry x="330" y="1650" width="60" height="30" as="geometry" />
        </mxCell>
        <mxCell id="j07MkLIGBB6SY7WjXgDA-55" value="&lt;font color=&quot;#000000&quot;&gt;No&lt;/font&gt;" style="text;html=1;strokeColor=none;fillColor=none;align=center;verticalAlign=middle;whiteSpace=wrap;rounded=0;fontColor=#ffffff;" vertex="1" parent="WIyWlLk6GJQsqaUBKTNV-1">
          <mxGeometry x="540" y="1420" width="60" height="30" as="geometry" />
        </mxCell>
        <mxCell id="j07MkLIGBB6SY7WjXgDA-56" value="Yes" style="text;html=1;strokeColor=none;fillColor=none;align=center;verticalAlign=middle;whiteSpace=wrap;rounded=0;fontColor=#000000;" vertex="1" parent="WIyWlLk6GJQsqaUBKTNV-1">
          <mxGeometry x="444" y="1510" width="60" height="30" as="geometry" />
        </mxCell>
        <mxCell id="j07MkLIGBB6SY7WjXgDA-59" value="최신등록순,&amp;nbsp;&lt;br&gt;높은금액순,&lt;br&gt;낮은금액순" style="shape=parallelogram;perimeter=parallelogramPerimeter;whiteSpace=wrap;html=1;fixedSize=1;fillColor=#a20025;fontColor=#ffffff;shadow=0;strokeWidth=1;spacing=6;spacingTop=-4;labelBackgroundColor=none;rounded=0;" vertex="1" parent="WIyWlLk6GJQsqaUBKTNV-1">
          <mxGeometry x="430" y="2005" width="120" height="60" as="geometry" />
        </mxCell>
      </root>
    </mxGraphModel>
  </diagram>
</mxfile>
